<svg width="30" height="29" viewBox="0 0 30 29" fill="none" xmlns="http://www.w3.org/2000/svg">
<path d="M21.2862 18.7471C23.0414 16.3519 23.8276 13.3824 23.4874 10.4326C23.1471 7.48269 21.7057 4.77006 19.4513 2.83736C17.197 0.904655 14.296 -0.105587 11.3288 0.00874455C8.3616 0.123076 5.54697 1.35355 3.44803 3.45399C1.34909 5.55444 0.120631 8.36994 0.00842271 11.3372C-0.103786 14.3045 0.908532 17.2048 2.84285 19.4577C4.77716 21.7107 7.49083 23.1502 10.4409 23.4883C13.391 23.8264 16.36 23.0381 18.7539 21.2812H18.7521C18.8064 21.3537 18.8645 21.4226 18.9297 21.4897L25.9086 28.4685C26.2484 28.8086 26.7095 28.9998 27.1904 29C27.6712 29.0002 28.1325 28.8093 28.4726 28.4694C28.8127 28.1295 29.0039 27.6684 29.0041 27.1876C29.0043 26.7067 28.8134 26.2455 28.4735 25.9054L21.4947 18.9265C21.4299 18.8609 21.3602 18.8003 21.2862 18.7453V18.7471ZM21.7539 11.7791C21.7539 13.0884 21.496 14.3848 20.995 15.5944C20.4939 16.804 19.7596 17.903 18.8338 18.8288C17.908 19.7546 16.809 20.489 15.5994 20.99C14.3898 21.491 13.0933 21.7489 11.7841 21.7489C10.4748 21.7489 9.17841 21.491 7.96882 20.99C6.75924 20.489 5.66017 19.7546 4.7344 18.8288C3.80862 17.903 3.07425 16.804 2.57322 15.5944C2.07219 14.3848 1.81431 13.0884 1.81431 11.7791C1.81431 9.13496 2.8647 6.59911 4.7344 4.72941C6.60409 2.85971 9.13994 1.80933 11.7841 1.80933C14.4282 1.80933 16.9641 2.85971 18.8338 4.72941C20.7035 6.59911 21.7539 9.13496 21.7539 11.7791Z" fill="black" fill-opacity="0.2"/>
</svg>
